# MagicaVoxel @ Ephtracy

# group
o 

# material
mtllib Islands-82.mtl
usemtl palette

# normals
vn -1 0 0
vn 1 0 0
vn 0 0 1
vn 0 0 -1
vn 0 -1 0
vn 0 1 0

# texcoords
vt 0.908203 0.5
vt 0.912109 0.5
vt 0.916016 0.5
vt 0.919922 0.5
vt 0.923828 0.5
vt 0.927734 0.5
vt 0.931641 0.5
vt 0.943359 0.5

# verts
v -0.8 -0.8 0.8
v -0.8 -0.8 -0.8
v -0.8 -0.5 0.8
v -0.8 -0.5 -0.8
v -0.8 -0.3 0.8
v -0.8 -0.3 -0.8
v -0.8 0 0.5
v -0.8 0 0.4
v -0.8 0 -0.4
v -0.8 0 -0.5
v -0.8 0.1 0.8
v -0.8 0.1 0.5
v -0.8 0.1 0.4
v -0.8 0.1 -0.4
v -0.8 0.1 -0.5
v -0.8 0.1 -0.6
v -0.8 0.1 -0.8
v -0.8 0.2 -0.5
v -0.8 0.2 -0.6
v -0.8 0.3 0.8
v -0.8 0.3 -0.8
v -0.8 0.5 0.8
v -0.8 0.5 -0.3
v -0.8 0.5 -0.4
v -0.8 0.5 -0.5
v -0.8 0.5 -0.6
v -0.8 0.5 -0.8
v -0.8 0.6 0.8
v -0.8 0.6 0.7
v -0.8 0.6 0.5
v -0.8 0.6 0.4
v -0.8 0.6 0.3
v -0.8 0.6 0
v -0.8 0.6 -0.1
v -0.8 0.6 -0.2
v -0.8 0.6 -0.4
v -0.8 0.6 -0.5
v -0.8 0.6 -0.6
v -0.8 0.6 -0.7
v -0.8 0.7 0.7
v -0.8 0.7 0.5
v -0.8 0.7 0.4
v -0.8 0.7 0.3
v -0.8 0.7 0
v -0.8 0.7 -0.1
v -0.8 0.7 -0.2
v -0.8 0.7 -0.3
v -0.8 0.7 -0.7
v -0.8 0.7 -0.8
v -0.8 0.8 0.8
v -0.8 0.8 -0.8
v 0.8 -0.8 0.8
v 0.8 -0.8 -0.8
v 0.8 -0.5 0.8
v 0.8 -0.5 -0.8
v 0.8 -0.3 0.8
v 0.8 -0.3 -0.8
v 0.8 0 0.4
v 0.8 0 0.3
v 0.8 0 -0.3
v 0.8 0 -0.4
v 0.8 0.1 0.8
v 0.8 0.1 0.4
v 0.8 0.1 0.3
v 0.8 0.1 -0.2
v 0.8 0.1 -0.3
v 0.8 0.1 -0.4
v 0.8 0.1 -0.8
v 0.8 0.2 -0.2
v 0.8 0.2 -0.3
v 0.8 0.3 0.8
v 0.8 0.3 -0.8
v 0.8 0.5 0.8
v 0.8 0.5 0.6
v 0.8 0.5 0.5
v 0.8 0.5 0.3
v 0.8 0.5 0.2
v 0.8 0.5 0.1
v 0.8 0.5 0
v 0.8 0.5 -0.6
v 0.8 0.5 -0.7
v 0.8 0.5 -0.8
v 0.8 0.6 0.8
v 0.8 0.6 0.7
v 0.8 0.6 0.5
v 0.8 0.6 0.4
v 0.8 0.6 0.2
v 0.8 0.6 0.1
v 0.8 0.6 0
v 0.8 0.6 -0.1
v 0.8 0.6 -0.2
v 0.8 0.6 -0.4
v 0.8 0.6 -0.5
v 0.8 0.6 -0.6
v 0.8 0.6 -0.7
v 0.8 0.6 -0.8
v 0.8 0.7 0.7
v 0.8 0.7 0.6
v 0.8 0.7 0.4
v 0.8 0.7 0.3
v 0.8 0.7 -0.1
v 0.8 0.7 -0.2
v 0.8 0.7 -0.4
v 0.8 0.7 -0.5
v 0.8 0.8 0.8
v 0.8 0.8 -0.8
v -0.8 -0.8 0.8
v -0.8 -0.5 0.8
v -0.8 -0.3 0.8
v -0.8 0.1 0.8
v -0.8 0.3 0.8
v -0.8 0.5 0.8
v -0.8 0.6 0.8
v -0.8 0.8 0.8
v -0.7 0.6 0.8
v -0.7 0.7 0.8
v -0.6 0 0.8
v -0.6 0.1 0.8
v -0.5 0 0.8
v -0.5 0.1 0.8
v -0.5 0.2 0.8
v -0.5 0.6 0.8
v -0.5 0.7 0.8
v -0.4 0.1 0.8
v -0.4 0.2 0.8
v -0.4 0.5 0.8
v -0.4 0.6 0.8
v -0.3 0.5 0.8
v -0.3 0.7 0.8
v -0.2 0.6 0.8
v -0.2 0.7 0.8
v -0.1 0.5 0.8
v -0.1 0.6 0.8
v 0 0 0.8
v 0 0.1 0.8
v 0.1 0 0.8
v 0.1 0.1 0.8
v 0.1 0.5 0.8
v 0.1 0.6 0.8
v 0.2 0.6 0.8
v 0.2 0.7 0.8
v 0.3 0.6 0.8
v 0.3 0.7 0.8
v 0.4 0.1 0.8
v 0.4 0.2 0.8
v 0.5 0 0.8
v 0.5 0.1 0.8
v 0.5 0.2 0.8
v 0.5 0.6 0.8
v 0.5 0.7 0.8
v 0.6 0 0.8
v 0.6 0.1 0.8
v 0.7 0.6 0.8
v 0.7 0.7 0.8
v 0.8 -0.8 0.8
v 0.8 -0.5 0.8
v 0.8 -0.3 0.8
v 0.8 0.1 0.8
v 0.8 0.3 0.8
v 0.8 0.5 0.8
v 0.8 0.6 0.8
v 0.8 0.8 0.8
v -0.8 -0.8 -0.8
v -0.8 -0.5 -0.8
v -0.8 -0.3 -0.8
v -0.8 0.1 -0.8
v -0.8 0.3 -0.8
v -0.8 0.5 -0.8
v -0.8 0.7 -0.8
v -0.8 0.8 -0.8
v -0.7 0 -0.8
v -0.7 0.1 -0.8
v -0.7 0.6 -0.8
v -0.7 0.7 -0.8
v -0.6 0 -0.8
v -0.6 0.1 -0.8
v -0.5 0.6 -0.8
v -0.5 0.7 -0.8
v -0.4 0.6 -0.8
v -0.4 0.7 -0.8
v -0.3 0.6 -0.8
v -0.3 0.7 -0.8
v -0.2 0.6 -0.8
v -0.2 0.7 -0.8
v -0.1 0.5 -0.8
v -0.1 0.6 -0.8
v 0 0.1 -0.8
v 0 0.2 -0.8
v 0 0.5 -0.8
v 0 0.6 -0.8
v 0.1 0 -0.8
v 0.1 0.1 -0.8
v 0.1 0.2 -0.8
v 0.1 0.6 -0.8
v 0.1 0.7 -0.8
v 0.2 0 -0.8
v 0.2 0.1 -0.8
v 0.2 0.6 -0.8
v 0.2 0.7 -0.8
v 0.3 0.6 -0.8
v 0.3 0.7 -0.8
v 0.4 0.6 -0.8
v 0.4 0.7 -0.8
v 0.6 0 -0.8
v 0.6 0.1 -0.8
v 0.6 0.6 -0.8
v 0.6 0.7 -0.8
v 0.7 0 -0.8
v 0.7 0.1 -0.8
v 0.7 0.6 -0.8
v 0.7 0.7 -0.8
v 0.8 -0.8 -0.8
v 0.8 -0.5 -0.8
v 0.8 -0.3 -0.8
v 0.8 0.1 -0.8
v 0.8 0.3 -0.8
v 0.8 0.5 -0.8
v 0.8 0.6 -0.8
v 0.8 0.8 -0.8
v -0.8 -0.8 0.8
v 0.8 -0.8 0.8
v -0.8 -0.8 -0.8
v 0.8 -0.8 -0.8
v -0.8 0.8 0.8
v 0.8 0.8 0.8
v -0.8 0.8 -0.8
v 0.8 0.8 -0.8

# faces
f 3/6/1 2/6/1 1/6/1
f 4/6/1 2/6/1 3/6/1
f 5/2/1 4/2/1 3/2/1
f 6/2/1 4/2/1 5/2/1
f 7/1/1 6/1/1 5/1/1
f 8/1/1 6/1/1 7/1/1
f 9/1/1 6/1/1 8/1/1
f 10/1/1 6/1/1 9/1/1
f 11/1/1 7/1/1 5/1/1
f 12/4/1 8/4/1 7/4/1
f 12/1/1 7/1/1 11/1/1
f 13/1/1 9/1/1 8/1/1
f 13/4/1 8/4/1 12/4/1
f 14/4/1 10/4/1 9/4/1
f 14/1/1 9/1/1 13/1/1
f 15/1/1 6/1/1 10/1/1
f 15/4/1 10/4/1 14/4/1
f 16/1/1 6/1/1 15/1/1
f 17/1/1 6/1/1 16/1/1
f 18/3/1 14/3/1 13/3/1
f 18/3/1 12/3/1 11/3/1
f 18/3/1 13/3/1 12/3/1
f 18/5/1 16/5/1 15/5/1
f 18/3/1 15/3/1 14/3/1
f 19/3/1 17/3/1 16/3/1
f 19/5/1 16/5/1 18/5/1
f 20/3/1 18/3/1 11/3/1
f 20/3/1 19/3/1 18/3/1
f 21/3/1 17/3/1 19/3/1
f 21/3/1 19/3/1 20/3/1
f 22/7/1 21/7/1 20/7/1
f 23/7/1 21/7/1 22/7/1
f 24/7/1 21/7/1 23/7/1
f 25/7/1 21/7/1 24/7/1
f 26/7/1 21/7/1 25/7/1
f 27/7/1 21/7/1 26/7/1
f 28/1/1 23/1/1 22/1/1
f 29/1/1 23/1/1 28/1/1
f 30/1/1 23/1/1 29/1/1
f 31/1/1 23/1/1 30/1/1
f 32/1/1 23/1/1 31/1/1
f 33/1/1 23/1/1 32/1/1
f 34/1/1 23/1/1 33/1/1
f 35/1/1 23/1/1 34/1/1
f 36/8/1 24/8/1 23/8/1
f 36/1/1 25/1/1 24/1/1
f 37/8/1 26/8/1 25/8/1
f 37/1/1 25/1/1 36/1/1
f 38/1/1 27/1/1 26/1/1
f 38/8/1 26/8/1 37/8/1
f 39/1/1 27/1/1 38/1/1
f 40/8/1 29/8/1 28/8/1
f 40/1/1 30/1/1 29/1/1
f 41/8/1 31/8/1 30/8/1
f 41/1/1 30/1/1 40/1/1
f 42/1/1 32/1/1 31/1/1
f 42/8/1 31/8/1 41/8/1
f 43/8/1 33/8/1 32/8/1
f 43/1/1 32/1/1 42/1/1
f 44/1/1 34/1/1 33/1/1
f 44/8/1 33/8/1 43/8/1
f 45/8/1 35/8/1 34/8/1
f 45/1/1 34/1/1 44/1/1
f 46/1/1 23/1/1 35/1/1
f 46/8/1 35/8/1 45/8/1
f 47/8/1 36/8/1 23/8/1
f 47/1/1 23/1/1 46/1/1
f 47/8/1 37/8/1 36/8/1
f 47/8/1 38/8/1 37/8/1
f 47/8/1 39/8/1 38/8/1
f 48/1/1 27/1/1 39/1/1
f 48/8/1 39/8/1 47/8/1
f 49/1/1 27/1/1 48/1/1
f 50/8/1 45/8/1 44/8/1
f 50/8/1 44/8/1 43/8/1
f 50/8/1 49/8/1 48/8/1
f 50/8/1 48/8/1 47/8/1
f 50/8/1 41/8/1 40/8/1
f 50/8/1 40/8/1 28/8/1
f 50/8/1 42/8/1 41/8/1
f 50/8/1 47/8/1 46/8/1
f 50/8/1 46/8/1 45/8/1
f 50/8/1 43/8/1 42/8/1
f 51/8/1 49/8/1 50/8/1
f 52/6/2 53/6/2 54/6/2
f 54/6/2 53/6/2 55/6/2
f 54/2/2 55/2/2 56/2/2
f 56/2/2 55/2/2 57/2/2
f 56/1/2 57/1/2 58/1/2
f 58/1/2 57/1/2 59/1/2
f 59/1/2 57/1/2 60/1/2
f 60/1/2 57/1/2 61/1/2
f 56/1/2 58/1/2 62/1/2
f 58/4/2 59/4/2 63/4/2
f 62/1/2 58/1/2 63/1/2
f 59/1/2 60/1/2 64/1/2
f 63/4/2 59/4/2 64/4/2
f 64/1/2 60/1/2 65/1/2
f 60/4/2 61/4/2 66/4/2
f 65/1/2 60/1/2 66/1/2
f 61/1/2 57/1/2 67/1/2
f 66/4/2 61/4/2 67/4/2
f 67/1/2 57/1/2 68/1/2
f 65/5/2 66/5/2 69/5/2
f 62/3/2 63/3/2 69/3/2
f 64/3/2 65/3/2 69/3/2
f 63/3/2 64/3/2 69/3/2
f 67/3/2 68/3/2 70/3/2
f 69/5/2 66/5/2 70/5/2
f 66/3/2 67/3/2 70/3/2
f 62/3/2 69/3/2 71/3/2
f 69/3/2 70/3/2 71/3/2
f 70/3/2 68/3/2 72/3/2
f 71/3/2 70/3/2 72/3/2
f 71/7/2 72/7/2 73/7/2
f 73/7/2 72/7/2 74/7/2
f 74/7/2 72/7/2 75/7/2
f 75/7/2 72/7/2 76/7/2
f 76/7/2 72/7/2 77/7/2
f 77/7/2 72/7/2 78/7/2
f 78/7/2 72/7/2 79/7/2
f 79/7/2 72/7/2 80/7/2
f 80/7/2 72/7/2 81/7/2
f 81/7/2 72/7/2 82/7/2
f 73/1/2 74/1/2 83/1/2
f 83/1/2 74/1/2 84/1/2
f 74/8/2 75/8/2 85/8/2
f 75/1/2 76/1/2 85/1/2
f 85/1/2 76/1/2 86/1/2
f 76/8/2 77/8/2 87/8/2
f 77/1/2 78/1/2 87/1/2
f 78/8/2 79/8/2 88/8/2
f 87/1/2 78/1/2 88/1/2
f 79/1/2 80/1/2 89/1/2
f 88/8/2 79/8/2 89/8/2
f 89/1/2 80/1/2 90/1/2
f 90/1/2 80/1/2 91/1/2
f 91/1/2 80/1/2 92/1/2
f 92/1/2 80/1/2 93/1/2
f 80/8/2 81/8/2 94/8/2
f 93/1/2 80/1/2 94/1/2
f 81/1/2 82/1/2 95/1/2
f 94/8/2 81/8/2 95/8/2
f 95/1/2 82/1/2 96/1/2
f 84/1/2 74/1/2 97/1/2
f 83/8/2 84/8/2 97/8/2
f 85/8/2 86/8/2 98/8/2
f 97/1/2 74/1/2 98/1/2
f 74/8/2 85/8/2 98/8/2
f 86/1/2 76/1/2 99/1/2
f 98/8/2 86/8/2 99/8/2
f 76/8/2 87/8/2 100/8/2
f 99/1/2 76/1/2 100/1/2
f 87/8/2 88/8/2 100/8/2
f 88/8/2 89/8/2 100/8/2
f 89/8/2 90/8/2 100/8/2
f 90/1/2 91/1/2 101/1/2
f 100/8/2 90/8/2 101/8/2
f 91/8/2 92/8/2 102/8/2
f 101/1/2 91/1/2 102/1/2
f 92/1/2 93/1/2 103/1/2
f 102/8/2 92/8/2 103/8/2
f 95/8/2 96/8/2 104/8/2
f 103/1/2 93/1/2 104/1/2
f 93/8/2 94/8/2 104/8/2
f 94/8/2 95/8/2 104/8/2
f 102/8/2 103/8/2 105/8/2
f 97/8/2 98/8/2 105/8/2
f 103/8/2 104/8/2 105/8/2
f 83/8/2 97/8/2 105/8/2
f 99/8/2 100/8/2 105/8/2
f 101/8/2 102/8/2 105/8/2
f 100/8/2 101/8/2 105/8/2
f 98/8/2 99/8/2 105/8/2
f 104/8/2 96/8/2 106/8/2
f 105/8/2 104/8/2 106/8/2
f 115/1/3 113/1/3 112/1/3
f 115/8/3 114/8/3 113/8/3
f 116/8/3 114/8/3 115/8/3
f 117/1/3 110/1/3 109/1/3
f 118/3/3 111/3/3 110/3/3
f 118/1/3 110/1/3 117/1/3
f 119/1/3 117/1/3 109/1/3
f 119/4/3 118/4/3 117/4/3
f 120/3/3 111/3/3 118/3/3
f 120/4/3 118/4/3 119/4/3
f 121/3/3 111/3/3 120/3/3
f 122/1/3 115/1/3 112/1/3
f 122/1/3 116/1/3 115/1/3
f 123/8/3 114/8/3 116/8/3
f 123/1/3 116/1/3 122/1/3
f 124/5/3 121/5/3 120/5/3
f 124/1/3 120/1/3 119/1/3
f 125/3/3 111/3/3 121/3/3
f 125/5/3 121/5/3 124/5/3
f 126/1/3 122/1/3 112/1/3
f 126/7/3 112/7/3 111/7/3
f 127/8/3 123/8/3 122/8/3
f 127/1/3 122/1/3 126/1/3
f 128/7/3 126/7/3 111/7/3
f 128/8/3 127/8/3 126/8/3
f 129/8/3 114/8/3 123/8/3
f 129/8/3 127/8/3 128/8/3
f 129/8/3 123/8/3 127/8/3
f 130/1/3 129/1/3 128/1/3
f 131/8/3 114/8/3 129/8/3
f 131/1/3 129/1/3 130/1/3
f 132/7/3 128/7/3 111/7/3
f 132/1/3 130/1/3 128/1/3
f 133/8/3 131/8/3 130/8/3
f 133/1/3 130/1/3 132/1/3
f 134/1/3 119/1/3 109/1/3
f 134/1/3 124/1/3 119/1/3
f 135/3/3 125/3/3 124/3/3
f 135/1/3 124/1/3 134/1/3
f 136/1/3 134/1/3 109/1/3
f 136/4/3 135/4/3 134/4/3
f 137/3/3 125/3/3 135/3/3
f 137/4/3 135/4/3 136/4/3
f 138/8/3 133/8/3 132/8/3
f 138/7/3 132/7/3 111/7/3
f 139/8/3 131/8/3 133/8/3
f 139/8/3 133/8/3 138/8/3
f 140/1/3 139/1/3 138/1/3
f 140/8/3 131/8/3 139/8/3
f 141/8/3 114/8/3 131/8/3
f 141/8/3 131/8/3 140/8/3
f 142/1/3 140/1/3 138/1/3
f 142/1/3 141/1/3 140/1/3
f 143/8/3 114/8/3 141/8/3
f 143/1/3 141/1/3 142/1/3
f 144/3/3 125/3/3 137/3/3
f 144/1/3 137/1/3 136/1/3
f 145/3/3 111/3/3 125/3/3
f 145/3/3 125/3/3 144/3/3
f 146/1/3 144/1/3 136/1/3
f 146/1/3 136/1/3 109/1/3
f 147/5/3 145/5/3 144/5/3
f 147/1/3 144/1/3 146/1/3
f 148/3/3 111/3/3 145/3/3
f 148/5/3 145/5/3 147/5/3
f 149/1/3 142/1/3 138/1/3
f 149/8/3 143/8/3 142/8/3
f 150/8/3 114/8/3 143/8/3
f 150/8/3 143/8/3 149/8/3
f 151/4/3 147/4/3 146/4/3
f 151/1/3 146/1/3 109/1/3
f 152/3/3 148/3/3 147/3/3
f 152/4/3 147/4/3 151/4/3
f 153/1/3 150/1/3 149/1/3
f 153/1/3 149/1/3 138/1/3
f 154/8/3 114/8/3 150/8/3
f 154/1/3 150/1/3 153/1/3
f 155/6/3 108/6/3 107/6/3
f 156/2/3 109/2/3 108/2/3
f 156/6/3 108/6/3 155/6/3
f 157/1/3 152/1/3 151/1/3
f 157/2/3 109/2/3 156/2/3
f 157/1/3 151/1/3 109/1/3
f 158/3/3 148/3/3 152/3/3
f 158/1/3 152/1/3 157/1/3
f 159/7/3 138/7/3 111/7/3
f 159/3/3 148/3/3 158/3/3
f 159/3/3 111/3/3 148/3/3
f 160/1/3 153/1/3 138/1/3
f 160/7/3 138/7/3 159/7/3
f 161/8/3 154/8/3 153/8/3
f 161/1/3 153/1/3 160/1/3
f 162/8/3 114/8/3 154/8/3
f 162/8/3 154/8/3 161/8/3
f 165/1/4 166/1/4 171/1/4
f 166/3/4 167/3/4 172/3/4
f 171/1/4 166/1/4 172/1/4
f 168/1/4 169/1/4 173/1/4
f 169/8/4 170/8/4 174/8/4
f 173/1/4 169/1/4 174/1/4
f 165/1/4 171/1/4 175/1/4
f 171/4/4 172/4/4 175/4/4
f 172/3/4 167/3/4 176/3/4
f 175/4/4 172/4/4 176/4/4
f 168/1/4 173/1/4 177/1/4
f 173/8/4 174/8/4 177/8/4
f 174/8/4 170/8/4 178/8/4
f 177/8/4 174/8/4 178/8/4
f 168/1/4 177/1/4 179/1/4
f 177/1/4 178/1/4 179/1/4
f 178/8/4 170/8/4 180/8/4
f 179/1/4 178/1/4 180/1/4
f 168/1/4 179/1/4 181/1/4
f 179/8/4 180/8/4 181/8/4
f 180/8/4 170/8/4 182/8/4
f 181/8/4 180/8/4 182/8/4
f 168/1/4 181/1/4 183/1/4
f 181/1/4 182/1/4 183/1/4
f 182/8/4 170/8/4 184/8/4
f 183/1/4 182/1/4 184/1/4
f 168/1/4 183/1/4 185/1/4
f 167/7/4 168/7/4 185/7/4
f 183/8/4 184/8/4 186/8/4
f 185/1/4 183/1/4 186/1/4
f 176/3/4 167/3/4 187/3/4
f 175/1/4 176/1/4 187/1/4
f 187/3/4 167/3/4 188/3/4
f 167/7/4 185/7/4 189/7/4
f 185/8/4 186/8/4 189/8/4
f 186/8/4 184/8/4 190/8/4
f 189/8/4 186/8/4 190/8/4
f 165/1/4 175/1/4 191/1/4
f 175/1/4 187/1/4 191/1/4
f 187/5/4 188/5/4 192/5/4
f 191/1/4 187/1/4 192/1/4
f 188/3/4 167/3/4 193/3/4
f 192/5/4 188/5/4 193/5/4
f 190/8/4 184/8/4 194/8/4
f 189/1/4 190/1/4 194/1/4
f 184/8/4 170/8/4 195/8/4
f 194/8/4 184/8/4 195/8/4
f 191/4/4 192/4/4 196/4/4
f 165/1/4 191/1/4 196/1/4
f 192/3/4 193/3/4 197/3/4
f 196/4/4 192/4/4 197/4/4
f 189/1/4 194/1/4 198/1/4
f 194/1/4 195/1/4 198/1/4
f 195/8/4 170/8/4 199/8/4
f 198/1/4 195/1/4 199/1/4
f 189/1/4 198/1/4 200/1/4
f 198/8/4 199/8/4 200/8/4
f 199/8/4 170/8/4 201/8/4
f 200/8/4 199/8/4 201/8/4
f 189/1/4 200/1/4 202/1/4
f 200/1/4 201/1/4 202/1/4
f 201/8/4 170/8/4 203/8/4
f 202/1/4 201/1/4 203/1/4
f 196/1/4 197/1/4 204/1/4
f 165/1/4 196/1/4 204/1/4
f 197/3/4 193/3/4 205/3/4
f 204/1/4 197/1/4 205/1/4
f 189/1/4 202/1/4 206/1/4
f 202/8/4 203/8/4 206/8/4
f 203/8/4 170/8/4 207/8/4
f 206/8/4 203/8/4 207/8/4
f 165/1/4 204/1/4 208/1/4
f 204/4/4 205/4/4 208/4/4
f 205/3/4 193/3/4 209/3/4
f 208/4/4 205/4/4 209/4/4
f 189/1/4 206/1/4 210/1/4
f 206/1/4 207/1/4 210/1/4
f 207/8/4 170/8/4 211/8/4
f 210/1/4 207/1/4 211/1/4
f 163/6/4 164/6/4 212/6/4
f 164/2/4 165/2/4 213/2/4
f 212/6/4 164/6/4 213/6/4
f 165/1/4 208/1/4 214/1/4
f 213/2/4 165/2/4 214/2/4
f 208/1/4 209/1/4 214/1/4
f 209/3/4 193/3/4 215/3/4
f 214/1/4 209/1/4 215/1/4
f 167/7/4 189/7/4 216/7/4
f 215/3/4 193/3/4 216/3/4
f 193/3/4 167/3/4 216/3/4
f 189/1/4 210/1/4 217/1/4
f 216/7/4 189/7/4 217/7/4
f 210/8/4 211/8/4 218/8/4
f 217/1/4 210/1/4 218/1/4
f 211/8/4 170/8/4 219/8/4
f 218/8/4 211/8/4 219/8/4
f 222/6/5 221/6/5 220/6/5
f 223/6/5 221/6/5 222/6/5
f 224/8/6 225/8/6 226/8/6
f 226/8/6 225/8/6 227/8/6
